<?xml version="1.0" standalone="no"?>
<!DOCTYPE svg PUBLIC "-//W3C//DTD SVG 20010904//EN"
 "http://www.w3.org/TR/2001/REC-SVG-20010904/DTD/svg10.dtd">
<svg version="1.0" xmlns="http://www.w3.org/2000/svg"
 width="900.000000pt" height="900.000000pt" viewBox="0 0 900.000000 900.000000"
 preserveAspectRatio="xMidYMid meet">
<metadata>
Created by potrace 1.10, written by Peter Selinger 2001-2011
</metadata>
<g transform="translate(0.000000,900.000000) scale(0.100000,-0.100000)"
fill="#000000" stroke="none">
<path d="M4200 8769 c-25 -5 -101 -13 -170 -18 -69 -5 -138 -13 -153 -20 -16
-6 -51 -11 -78 -11 -27 0 -66 -7 -86 -15 -19 -8 -53 -15 -75 -15 -21 0 -55 -7
-75 -15 -19 -8 -50 -15 -67 -15 -17 0 -44 -7 -60 -15 -15 -8 -43 -15 -60 -15
-18 0 -41 -7 -52 -15 -10 -8 -33 -15 -50 -15 -16 0 -39 -7 -50 -15 -10 -8 -31
-15 -45 -15 -14 0 -34 -7 -45 -15 -10 -8 -31 -15 -45 -15 -14 0 -34 -7 -45
-15 -10 -8 -28 -15 -40 -15 -11 0 -29 -7 -40 -15 -10 -8 -27 -15 -37 -15 -11
0 -31 -6 -45 -13 -15 -8 -43 -21 -62 -29 -222 -96 -616 -304 -640 -338 -3 -4
-23 -17 -44 -28 -22 -12 -42 -25 -45 -30 -3 -4 -24 -19 -46 -32 -22 -13 -46
-30 -54 -38 -8 -8 -33 -25 -55 -39 -23 -14 -45 -30 -51 -37 -5 -6 -39 -34 -75
-60 -36 -27 -70 -54 -75 -60 -6 -6 -46 -42 -90 -80 -102 -89 -272 -259 -361
-361 -38 -44 -74 -84 -80 -90 -6 -5 -33 -39 -60 -75 -26 -36 -54 -69 -60 -75
-7 -5 -23 -28 -37 -51 -14 -22 -31 -47 -39 -55 -8 -8 -25 -32 -38 -54 -13 -22
-28 -43 -32 -46 -5 -3 -18 -23 -30 -45 -11 -21 -24 -41 -28 -44 -27 -20 -238
-409 -305 -565 -32 -75 -49 -112 -62 -137 -7 -14 -13 -34 -13 -45 0 -10 -7
-27 -15 -37 -8 -11 -15 -28 -15 -37 0 -10 -6 -30 -14 -46 -19 -39 -37 -92 -44
-128 -2 -16 -11 -39 -18 -50 -8 -11 -14 -33 -14 -50 0 -16 -7 -39 -15 -49 -8
-11 -15 -34 -15 -50 -1 -17 -7 -42 -15 -56 -8 -14 -14 -41 -15 -61 0 -20 -7
-53 -15 -72 -8 -20 -15 -56 -15 -80 0 -24 -5 -48 -11 -54 -6 -6 -14 -48 -19
-94 -4 -46 -13 -97 -19 -112 -6 -16 -11 -65 -11 -110 0 -45 -7 -118 -15 -162
-17 -93 -20 -520 -4 -600 5 -27 13 -106 18 -175 5 -69 13 -138 20 -153 6 -16
11 -51 11 -78 0 -27 7 -66 15 -86 8 -19 15 -53 15 -75 0 -21 7 -55 15 -75 8
-19 15 -52 15 -72 0 -21 7 -46 15 -57 8 -10 15 -35 15 -55 0 -19 7 -44 15 -55
8 -10 15 -33 15 -50 0 -16 7 -39 15 -50 8 -10 15 -31 15 -45 0 -14 7 -34 15
-45 8 -10 15 -31 15 -45 0 -14 7 -34 15 -45 8 -10 15 -28 15 -40 0 -11 7 -29
15 -40 8 -10 15 -25 15 -32 0 -8 7 -30 16 -50 8 -21 21 -50 28 -67 62 -144
201 -421 217 -431 5 -3 9 -12 9 -19 0 -8 20 -44 45 -81 25 -36 45 -69 45 -74
0 -5 6 -15 13 -22 7 -7 24 -31 37 -53 13 -22 26 -42 29 -45 4 -3 21 -27 40
-55 63 -92 104 -150 110 -155 4 -3 31 -36 60 -75 30 -38 64 -79 75 -90 12 -11
46 -49 76 -85 92 -109 180 -198 290 -294 58 -50 114 -100 125 -112 11 -11 52
-45 90 -75 39 -29 76 -60 84 -67 8 -7 26 -21 40 -30 14 -9 51 -35 82 -57 62
-44 70 -50 147 -100 30 -19 56 -35 58 -35 2 0 23 -14 46 -30 22 -17 47 -30 55
-30 7 0 13 -4 13 -9 0 -5 12 -14 28 -20 15 -7 56 -28 92 -48 64 -35 171 -89
240 -120 19 -9 42 -20 50 -25 8 -4 22 -11 30 -14 8 -3 29 -12 45 -19 81 -36
104 -45 117 -45 7 0 22 -7 32 -15 11 -8 29 -15 41 -15 12 0 30 -7 41 -15 10
-8 30 -15 44 -15 14 0 34 -7 44 -15 11 -8 30 -15 42 -15 12 0 35 -7 50 -15 16
-8 39 -15 50 -15 12 0 35 -7 50 -15 16 -8 43 -15 59 -15 17 -1 41 -7 55 -15
14 -8 41 -14 61 -15 20 0 53 -7 72 -15 20 -8 56 -15 80 -15 24 0 48 -5 54 -11
6 -6 49 -14 95 -18 47 -4 91 -12 99 -17 8 -5 70 -12 139 -15 69 -4 154 -12
190 -18 98 -16 438 -14 545 4 50 8 129 15 176 15 51 0 104 6 129 15 23 8 65
15 92 15 27 0 65 7 85 15 19 8 53 15 75 15 21 0 55 7 75 15 19 8 48 15 64 15
15 0 40 5 56 11 15 7 46 15 68 19 22 4 55 13 73 19 17 6 47 16 65 22 17 6 49
14 70 19 21 4 44 13 50 19 6 6 20 11 32 11 12 0 30 7 41 15 10 8 30 15 42 15
13 0 36 6 50 14 15 8 47 21 72 31 57 21 111 45 130 56 8 5 22 12 30 15 14 5
308 151 368 183 15 8 29 18 30 23 2 4 9 8 16 8 7 0 32 14 54 30 23 17 44 30
47 30 2 0 39 24 80 53 42 28 84 57 93 62 30 18 286 213 318 242 17 15 66 60
109 98 101 89 211 199 300 300 39 43 83 92 98 109 29 32 224 288 242 318 6 9
34 51 63 93 28 41 52 78 52 80 0 3 14 24 30 47 17 22 30 47 30 54 0 7 4 14 8
16 10 4 13 8 121 225 46 92 87 175 92 183 5 8 12 22 15 30 3 8 12 29 19 45 7
17 21 50 30 75 10 25 23 57 31 72 8 14 14 37 14 51 0 13 7 30 15 37 8 7 15 24
15 39 0 15 5 32 11 38 6 6 15 29 19 50 5 21 13 53 19 71 6 17 16 47 22 65 6
17 15 50 19 72 4 22 12 53 19 68 6 16 11 41 11 56 0 16 7 45 15 64 8 20 15 54
15 75 0 22 7 56 15 75 8 20 15 61 15 90 0 30 7 71 15 90 10 23 15 70 15 129 0
51 7 129 15 173 20 109 20 438 0 569 -8 55 -15 136 -15 181 0 48 -6 100 -15
125 -8 23 -15 65 -15 92 0 27 -7 65 -15 85 -8 19 -15 53 -15 75 0 21 -7 55
-15 75 -8 19 -15 52 -15 72 -1 20 -7 47 -15 61 -8 14 -14 39 -15 55 0 17 -7
43 -15 59 -8 15 -15 40 -15 55 0 14 -7 35 -15 45 -8 11 -15 32 -15 46 0 14 -7
35 -15 46 -8 10 -15 30 -15 44 0 14 -7 34 -15 44 -8 11 -15 28 -15 39 0 10 -6
31 -14 45 -8 15 -21 47 -31 72 -21 57 -45 111 -56 130 -5 8 -12 22 -15 30 -5
14 -153 312 -183 368 -8 15 -18 29 -23 30 -4 2 -8 9 -8 16 0 7 -13 32 -30 54
-16 23 -30 44 -30 46 0 2 -16 28 -35 58 -49 75 -55 83 -105 153 -25 35 -52 73
-60 85 -8 13 -20 28 -25 34 -6 6 -31 38 -57 71 -25 33 -59 74 -75 91 -15 17
-59 66 -97 110 -89 101 -199 211 -300 300 -44 38 -93 82 -110 97 -17 16 -58
50 -91 75 -33 25 -61 50 -63 54 -2 4 -20 17 -40 30 -32 19 -136 92 -167 116
-5 4 -28 19 -50 32 -22 13 -46 30 -53 37 -7 7 -17 13 -22 13 -4 0 -32 16 -61
36 -30 20 -67 43 -84 51 -16 7 -52 27 -80 43 -58 34 -293 149 -380 186 -16 7
-46 20 -67 28 -20 9 -42 16 -50 16 -7 0 -22 7 -32 15 -11 8 -29 15 -40 15 -12
0 -30 7 -40 15 -11 8 -31 15 -45 15 -14 0 -35 7 -45 15 -11 8 -31 15 -45 15
-14 0 -35 7 -45 15 -11 8 -32 15 -47 15 -15 0 -40 7 -55 15 -16 8 -41 15 -55
15 -15 0 -40 7 -55 15 -16 8 -43 15 -60 15 -17 0 -48 7 -67 15 -20 8 -54 15
-75 15 -22 0 -56 7 -75 15 -20 8 -59 15 -86 15 -27 0 -62 5 -78 11 -15 7 -84
15 -153 20 -69 5 -150 13 -180 18 -69 12 -510 12 -570 0z m185 -1354 c33 -8
72 -14 87 -15 14 0 39 -6 55 -14 15 -8 48 -24 73 -36 83 -39 98 -50 172 -124
68 -69 102 -122 153 -241 7 -16 18 -68 25 -115 10 -70 9 -100 -3 -165 -8 -44
-19 -90 -25 -102 -7 -12 -12 -30 -12 -41 0 -11 -7 -25 -15 -32 -8 -7 -15 -19
-15 -26 0 -8 -13 -33 -30 -56 -16 -22 -30 -47 -30 -55 0 -16 33 -30 103 -42
61 -11 123 -33 139 -49 7 -7 20 -12 29 -12 10 0 20 -4 24 -9 3 -6 26 -20 50
-32 25 -12 45 -25 45 -28 0 -4 20 -17 45 -31 25 -14 45 -28 45 -31 0 -4 12
-12 28 -18 15 -6 34 -15 42 -19 50 -29 81 -42 103 -42 13 0 41 -7 60 -15 42
-17 172 -20 232 -4 22 5 65 14 95 18 58 9 106 24 153 47 34 16 63 18 72 4 11
-18 -38 -100 -98 -166 -73 -80 -178 -161 -239 -185 -16 -6 -28 -15 -28 -20 0
-5 -8 -9 -18 -9 -10 0 -27 -7 -38 -15 -10 -8 -26 -15 -34 -15 -8 0 -28 -7 -44
-15 -15 -8 -37 -15 -47 -15 -10 0 -36 -6 -56 -14 -21 -8 -83 -17 -138 -20 -55
-3 -101 -5 -102 -6 -2 0 -3 -14 -3 -32 0 -27 11 -43 65 -93 36 -34 89 -74 118
-89 28 -15 59 -31 67 -36 15 -8 45 -21 122 -54 20 -9 50 -16 66 -16 17 0 34
-4 37 -10 3 -5 14 -10 24 -10 9 0 26 -6 36 -14 19 -14 19 -15 -5 -35 -14 -11
-37 -23 -52 -26 -16 -4 -28 -10 -28 -15 0 -4 -19 -10 -42 -14 -23 -4 -48 -12
-55 -18 -8 -6 -80 -10 -195 -10 -143 0 -191 4 -220 16 -21 9 -46 16 -57 16
-11 0 -37 7 -58 16 -21 9 -53 23 -70 31 -59 25 -108 48 -113 53 -3 3 -23 17
-45 32 -22 15 -60 48 -85 73 -24 25 -51 45 -60 45 -19 0 -48 -39 -79 -107 -29
-63 -247 -253 -291 -253 -15 0 -12 54 5 86 8 16 15 38 15 50 0 11 6 34 14 50
18 38 30 242 15 260 -16 20 -38 6 -70 -45 -38 -59 -95 -119 -150 -156 -24 -17
-46 -32 -49 -35 -10 -10 -97 -50 -109 -50 -6 0 -11 -4 -11 -9 0 -5 -12 -11
-27 -14 -16 -2 -41 -9 -58 -15 -127 -43 -138 -44 -315 -44 -140 0 -181 3 -205
16 -16 9 -39 16 -50 16 -11 0 -29 7 -39 15 -11 8 -26 15 -33 15 -8 0 -26 11
-40 24 l-27 25 30 11 c16 7 37 16 46 21 10 5 30 9 45 9 16 0 41 7 57 15 15 8
36 15 46 15 10 0 23 7 30 15 7 8 20 15 30 15 10 0 23 7 30 15 7 8 20 15 30 15
10 0 23 7 30 15 7 8 18 15 25 15 19 0 165 142 165 160 -1 35 -17 42 -116 46
-55 3 -116 12 -137 20 -20 8 -46 14 -56 14 -10 0 -32 7 -47 15 -16 8 -36 15
-44 15 -8 0 -24 7 -34 15 -11 8 -28 15 -38 15 -10 0 -18 4 -18 9 0 5 -12 14
-27 20 -62 24 -167 105 -240 185 -60 66 -109 148 -98 166 9 14 38 12 72 -4 47
-23 95 -38 153 -47 30 -4 73 -13 95 -18 60 -16 190 -13 232 4 19 8 47 15 60
15 14 0 37 6 51 14 15 8 34 17 42 20 15 6 26 12 65 35 11 6 32 16 48 22 15 6
27 14 27 18 0 3 20 17 45 31 25 14 45 27 45 31 0 3 19 15 43 28 23 12 49 25
57 30 48 26 95 41 180 56 87 15 101 15 168 1 40 -9 88 -16 106 -16 17 0 37 -5
44 -12 8 -8 20 -5 46 15 35 27 97 99 109 127 4 8 11 22 15 30 40 70 51 111 59
224 3 42 1 72 -6 79 -6 6 -11 21 -11 34 0 36 -54 127 -105 178 -39 39 -91 75
-107 75 -7 0 -22 7 -32 15 -27 21 -272 21 -301 1 -11 -7 -31 -17 -45 -21 -14
-4 -39 -18 -57 -31 -37 -28 -56 -30 -73 -9 -7 8 -21 15 -31 15 -10 0 -20 4
-23 9 -7 11 -88 51 -104 51 -7 0 -12 11 -12 24 0 22 10 34 91 101 33 28 121
81 147 89 12 4 22 12 22 17 0 5 9 9 21 9 11 0 33 6 47 14 31 16 160 43 212 45
19 0 62 -6 95 -14z m-1346 -1014 c9 -6 46 -14 82 -20 78 -13 164 -33 202 -49
16 -7 37 -12 47 -12 10 0 21 -4 25 -9 3 -5 19 -12 36 -16 17 -4 42 -13 57 -21
15 -8 32 -14 37 -14 6 0 23 -11 39 -23 l29 -24 -45 -21 c-24 -12 -53 -22 -64
-22 -10 -1 -30 -7 -44 -15 -18 -10 -59 -14 -145 -14 -86 0 -127 4 -145 14 -14
8 -38 15 -55 15 -16 0 -39 7 -49 15 -11 8 -32 15 -47 15 -14 0 -32 7 -39 15
-7 8 -22 15 -34 15 -11 0 -30 7 -40 15 -26 20 -71 19 -90 -1 -20 -20 -21 -84
-1 -110 8 -10 15 -29 15 -41 0 -12 7 -28 15 -37 8 -8 15 -20 15 -26 0 -12 70
-107 111 -150 13 -14 47 -43 74 -65 28 -22 52 -42 55 -46 23 -25 247 -139 274
-139 8 0 27 -7 42 -15 16 -8 43 -15 61 -15 17 0 53 -9 79 -21 l48 -20 -29 -24
c-17 -13 -59 -38 -95 -55 -36 -17 -78 -38 -93 -46 -16 -8 -38 -14 -50 -14 -12
0 -35 -7 -51 -15 -15 -8 -40 -15 -55 -15 -24 0 -107 -23 -141 -40 -8 -4 -16
-20 -18 -37 -3 -30 1 -34 95 -113 7 -6 23 -15 35 -20 13 -6 30 -14 38 -19 34
-20 92 -41 113 -41 12 0 40 -7 62 -15 57 -20 327 -21 385 0 23 8 57 15 74 15
17 0 44 7 60 15 15 8 36 15 45 15 10 0 26 7 37 15 10 8 29 15 40 15 12 0 27 7
34 15 7 8 18 15 25 15 17 0 125 70 125 81 0 5 9 9 21 9 19 0 20 -4 14 -41 -4
-22 -13 -53 -21 -67 -8 -15 -14 -35 -14 -45 0 -10 -7 -25 -15 -34 -11 -11 -15
-30 -13 -62 l3 -46 60 -3 c51 -3 69 1 125 29 105 53 179 116 269 232 47 59 81
84 81 58 0 -5 26 -26 58 -47 31 -22 59 -42 62 -45 5 -5 58 -31 132 -63 20 -9
44 -16 55 -16 10 0 27 -7 37 -15 11 -8 35 -15 54 -15 18 0 55 -7 82 -16 61
-20 371 -17 392 4 6 6 25 12 41 12 54 0 172 59 239 120 44 40 49 49 46 80 -3
31 -7 35 -38 41 -19 3 -48 11 -63 18 -16 6 -41 11 -57 11 -15 0 -41 7 -56 15
-16 8 -41 15 -56 15 -16 0 -28 5 -28 10 0 6 -6 10 -12 10 -16 0 -159 71 -176
87 -7 7 -18 13 -23 13 -5 0 -9 6 -9 14 0 16 74 46 115 46 17 0 43 7 59 15 15
8 35 15 43 15 8 0 27 6 41 13 15 8 45 22 67 32 42 20 157 85 165 94 3 3 27 24
55 46 27 22 58 49 69 59 31 31 116 146 116 157 0 6 7 17 15 25 8 9 15 24 15
34 0 10 7 31 15 46 19 38 19 88 -1 108 -19 19 -57 20 -92 3 -15 -8 -42 -21
-60 -30 -19 -9 -44 -17 -56 -17 -12 0 -31 -7 -42 -15 -10 -8 -32 -15 -49 -15
-16 0 -41 -7 -55 -15 -36 -21 -287 -21 -326 0 -16 8 -39 15 -51 15 -26 0 -75
38 -67 52 3 4 26 17 52 28 26 12 54 24 62 29 9 5 30 12 48 15 17 4 34 12 37
17 4 5 15 9 25 9 10 0 31 5 47 12 38 16 124 36 202 49 36 6 72 14 81 19 27 15
328 22 440 11 321 -31 574 -135 835 -342 201 -159 402 -436 499 -686 47 -123
48 -126 90 -285 52 -194 72 -415 62 -683 -7 -174 -11 -216 -35 -355 -28 -162
-101 -433 -141 -525 -5 -11 -19 -45 -31 -75 -102 -255 -278 -567 -416 -735 -5
-5 -35 -44 -68 -85 -66 -84 -294 -315 -370 -375 -27 -22 -52 -42 -55 -45 -18
-20 -237 -177 -270 -193 -8 -4 -28 -16 -45 -26 -37 -24 -212 -112 -280 -141
-119 -51 -150 -61 -330 -106 -201 -50 -476 -67 -636 -40 -115 20 -218 20 -334
1 -125 -20 -605 -20 -730 0 -113 19 -227 19 -330 0 -91 -17 -352 -20 -405 -5
-19 5 -66 14 -105 19 -88 13 -175 31 -195 41 -9 4 -31 11 -50 14 -35 7 -106
30 -145 47 -121 50 -215 96 -323 155 -66 36 -76 42 -132 79 -48 31 -201 145
-210 155 -3 3 -27 23 -55 45 -27 21 -113 102 -190 180 -194 195 -376 440 -504
677 -16 31 -35 65 -40 75 -15 26 -101 213 -101 219 0 3 -8 24 -19 47 -63 142
-121 342 -167 582 -28 142 -33 187 -40 370 -7 197 7 442 32 560 24 110 69 273
91 330 8 22 22 58 30 80 95 249 304 534 508 693 76 59 205 144 255 169 76 36
162 73 172 73 6 0 24 6 41 13 82 35 212 65 337 78 95 9 436 2 459 -10z"/>
<path d="M2880 4881 c-52 -4 -105 -12 -117 -19 -12 -7 -35 -12 -50 -12 -16 0
-38 -7 -49 -15 -10 -8 -28 -15 -40 -15 -11 0 -29 -7 -40 -15 -10 -8 -29 -15
-40 -15 -12 0 -27 -7 -34 -15 -7 -8 -18 -15 -26 -15 -27 0 -210 -132 -267
-194 -67 -72 -121 -149 -156 -221 -19 -38 -40 -82 -47 -97 -8 -14 -14 -35 -14
-46 0 -11 -7 -36 -15 -55 -21 -51 -21 -323 0 -374 8 -19 15 -44 15 -55 0 -11
6 -32 14 -46 7 -15 24 -49 36 -77 13 -27 33 -64 46 -82 13 -17 24 -36 24 -42
0 -10 179 -193 211 -216 53 -38 138 -88 179 -107 24 -10 41 -17 122 -52 20 -9
47 -16 60 -16 13 0 29 -5 36 -12 6 -6 44 -15 84 -19 40 -4 106 -13 146 -20 60
-10 88 -10 150 0 42 7 110 16 150 20 40 4 78 13 84 19 7 7 26 12 43 12 17 0
40 7 51 15 10 8 25 15 33 15 23 0 161 70 226 113 33 22 95 75 138 116 77 76
177 209 177 236 0 8 4 15 10 15 5 0 13 12 16 27 4 15 13 38 20 52 8 14 14 35
14 46 1 11 7 31 15 45 11 19 14 67 14 200 0 133 -3 181 -14 200 -8 14 -14 35
-15 47 0 24 -21 72 -84 188 -26 47 -103 144 -155 193 -61 58 -189 151 -231
168 -8 3 -22 10 -30 15 -8 5 -22 12 -30 15 -8 3 -27 12 -42 20 -14 8 -37 14
-50 14 -12 0 -32 7 -42 15 -11 8 -33 15 -48 15 -16 0 -41 6 -56 14 -33 16
-282 26 -422 17z m375 -747 c40 -30 95 -115 95 -147 1 -12 7 -33 15 -47 16
-28 21 -215 6 -224 -5 -3 -12 -23 -15 -43 -15 -82 -77 -164 -143 -187 -33 -11
-43 -11 -73 3 -65 30 -93 57 -115 111 -4 8 -14 30 -22 48 -24 49 -23 294 1
348 31 70 49 98 85 131 48 44 115 46 166 7z"/>
<path d="M5785 4881 c-49 -3 -100 -12 -112 -18 -12 -7 -35 -13 -50 -13 -16 0
-38 -7 -49 -15 -10 -8 -30 -15 -42 -15 -13 0 -36 -6 -50 -14 -15 -8 -34 -17
-42 -20 -8 -3 -22 -10 -30 -15 -8 -5 -22 -12 -30 -15 -17 -7 -42 -23 -122 -78
-122 -84 -232 -212 -299 -351 -12 -23 -27 -54 -35 -69 -8 -14 -14 -37 -14 -50
-1 -12 -7 -34 -15 -48 -11 -19 -14 -67 -14 -200 0 -133 3 -181 14 -200 8 -14
14 -34 15 -45 0 -11 6 -32 14 -46 7 -14 16 -37 20 -52 3 -15 11 -27 16 -27 6
0 10 -7 10 -15 0 -49 198 -276 295 -337 97 -62 224 -128 245 -128 4 0 21 -7
36 -15 16 -8 40 -15 54 -15 15 0 31 -5 38 -12 6 -6 44 -15 84 -19 40 -4 110
-13 155 -20 71 -11 93 -10 167 4 46 9 104 17 128 17 24 1 54 7 68 15 14 8 36
14 48 15 13 0 40 7 60 16 141 60 142 61 189 87 161 91 323 261 392 412 13 28
30 62 37 77 8 14 14 35 14 46 0 11 7 36 15 55 11 27 15 76 15 187 0 111 -4
160 -15 187 -8 19 -15 44 -15 55 0 11 -6 32 -14 46 -7 15 -30 62 -50 104 -20
42 -40 78 -44 80 -4 2 -20 22 -35 44 -33 49 -124 140 -187 187 -77 57 -140 97
-154 97 -8 0 -19 7 -26 15 -7 8 -22 15 -34 15 -11 0 -30 7 -40 15 -11 8 -29
15 -40 15 -12 0 -30 7 -40 15 -11 8 -32 15 -47 15 -14 0 -42 6 -60 14 -40 16
-290 26 -424 17z m85 -746 c39 -24 90 -91 90 -118 0 -7 7 -23 16 -35 21 -30
15 -288 -8 -346 -20 -51 -93 -134 -124 -142 -50 -13 -110 5 -148 43 -20 20
-36 44 -36 53 0 10 -7 23 -15 30 -8 7 -15 25 -15 39 0 15 -7 48 -16 74 -18 52
-15 126 8 217 21 82 37 110 91 163 59 56 95 61 157 22z"/>
<path d="M2271 2964 c-22 -18 -31 -35 -31 -56 0 -34 14 -50 345 -385 208 -211
211 -213 253 -213 39 0 55 7 137 57 11 7 52 31 90 54 39 23 72 46 73 51 2 4 9
8 16 8 7 0 31 12 53 28 51 36 75 51 92 59 15 7 48 -26 133 -133 31 -39 75 -93
97 -120 47 -55 48 -57 81 -101 13 -18 31 -33 40 -33 19 0 65 48 175 184 22 28
57 68 78 90 20 23 47 56 60 73 12 18 27 33 34 33 18 0 55 -39 186 -193 27 -31
53 -54 58 -51 6 3 20 23 34 43 13 21 30 44 37 52 8 8 32 39 53 69 21 30 43 60
49 67 25 28 34 40 45 61 18 34 45 27 77 -20 16 -24 35 -50 43 -58 8 -8 27 -36
43 -62 16 -26 33 -48 37 -48 4 0 20 -20 35 -45 47 -74 45 -74 129 24 101 118
144 161 159 161 7 0 23 -15 35 -33 13 -17 40 -50 60 -72 21 -23 64 -73 95
-111 89 -111 140 -164 157 -164 9 0 38 29 65 65 26 35 59 76 72 90 13 14 50
58 81 98 86 108 119 141 134 133 8 -3 26 -14 40 -24 29 -19 210 -131 237 -147
10 -5 31 -19 47 -31 82 -58 145 -70 193 -35 35 25 512 515 531 546 47 76 -93
150 -185 98 -17 -10 -101 -94 -186 -188 -86 -93 -180 -196 -211 -229 l-55 -59
-48 24 c-27 13 -51 27 -54 31 -3 4 -17 12 -30 17 -14 6 -32 15 -40 21 -40 26
-168 100 -173 100 -4 0 -26 13 -49 29 -75 51 -79 51 -144 -31 -33 -40 -70 -90
-84 -110 -14 -21 -27 -38 -31 -38 -3 0 -30 -34 -60 -75 -67 -92 -81 -95 -141
-22 -23 28 -47 57 -53 63 -5 6 -41 46 -80 90 -38 43 -84 94 -102 114 l-32 35
-40 -45 c-21 -25 -53 -61 -70 -80 -17 -19 -48 -59 -68 -87 -21 -29 -43 -53
-49 -53 -13 0 -58 51 -108 123 -21 32 -41 57 -45 57 -3 0 -17 17 -31 38 -52
77 -75 79 -127 15 -21 -27 -41 -50 -44 -53 -3 -3 -22 -27 -42 -55 -61 -83 -99
-125 -111 -125 -6 0 -29 25 -51 56 -22 31 -55 72 -73 92 -19 20 -45 54 -59 75
-14 20 -33 37 -42 37 -9 -1 -28 -17 -43 -37 -15 -20 -61 -72 -102 -117 -40
-44 -95 -107 -120 -138 -62 -76 -78 -76 -136 4 -25 35 -53 70 -62 80 -10 10
-34 41 -55 70 -20 29 -43 59 -50 67 -8 8 -22 26 -31 40 -40 62 -40 62 -98 30
-30 -16 -72 -40 -94 -54 -22 -14 -43 -25 -47 -25 -3 0 -14 -6 -22 -14 -9 -7
-47 -31 -86 -52 -38 -20 -83 -46 -100 -56 -76 -45 -72 -46 -149 34 -38 40
-126 136 -195 213 -187 209 -181 205 -263 205 -46 0 -62 -5 -87 -26z"/>
</g>
</svg>
